<svg xmlns="http://www.w3.org/2000/svg" width="253" height="62" fill="none" viewBox="0 0 253 62"><g filter="url(#filter0_b_980_14271)"><rect width="50.101" height="25.05" x="201.98" fill="#E3E8F2" rx="6.788"/><path fill="url(#paint0_linear_980_14271)" d="M213.454 18.5253L213.564 17.1157C214.071 18.1768 215.101 18.7153 216.32 18.7153C218.569 18.7153 219.963 17.0365 219.963 14.6924C219.963 12.3008 218.633 10.5586 216.415 10.5586C215.148 10.5586 214.103 11.0971 213.596 12.1107V6.86822H212.107V18.5253H213.454ZM213.612 14.629C213.612 13.0452 214.531 11.9048 216.051 11.9048C217.572 11.9048 218.474 13.0452 218.474 14.629C218.474 16.2287 217.572 17.3691 216.051 17.3691C214.531 17.3691 213.612 16.2445 213.612 14.629ZM224.946 18.7153C226.862 18.7153 228.161 17.7809 228.541 16.1178H227.148C226.894 17.0048 226.134 17.4799 224.978 17.4799C223.505 17.4799 222.649 16.5771 222.539 14.9458L228.526 14.93V14.3756C228.526 12.079 227.084 10.5586 224.883 10.5586C222.634 10.5586 221.097 12.2374 221.097 14.6607C221.097 17.0681 222.665 18.7153 224.946 18.7153ZM224.883 11.8098C226.197 11.8098 227.037 12.6651 227.037 13.948H222.57C222.76 12.5859 223.584 11.8098 224.883 11.8098ZM232.297 18.5253V12.0315H233.817V10.7803H232.297V8.35703H230.808V10.7803H229.287V12.0315H230.808V18.5253H232.297ZM237.325 18.7153C238.577 18.7153 239.638 18.161 240.034 17.274L240.192 18.5253H241.459V13.6629C241.459 11.5722 240.161 10.5586 238.244 10.5586C236.248 10.5586 234.918 11.6197 234.918 13.2352H236.217C236.217 12.3008 236.929 11.7464 238.181 11.7464C239.226 11.7464 240.002 12.2058 240.002 13.5045V13.7262L237.563 13.9163C235.742 14.0588 234.68 14.9458 234.68 16.3712C234.68 17.7809 235.662 18.7153 237.325 18.7153ZM237.753 17.5591C236.787 17.5591 236.185 17.1473 236.185 16.3237C236.185 15.5635 236.724 15.0567 238.038 14.93L240.018 14.7716V15.1834C240.018 16.6405 239.163 17.5591 237.753 17.5591Z"/></g><g clip-path="url(#clip0_980_14271)"><rect width="56" height="56" y="5.818" fill="#fff" rx="10.182"/><g filter="url(#filter1_f_980_14271)"><path fill="#6AB3FF" d="M14.2653 91.8605C38.2927 91.8605 57.7708 71.3197 57.7708 45.9813C57.7708 20.643 38.2927 0.102173 14.2653 0.102173C-9.76216 0.102173 -29.2402 20.643 -29.2402 45.9813C-29.2402 71.3197 -9.76216 91.8605 14.2653 91.8605Z"/><path fill="#31D0AA" d="M-17.1649 112.13C8.81892 112.13 29.883 96.5481 29.883 77.3273C29.883 58.1065 8.81892 42.5249 -17.1649 42.5249C-43.1488 42.5249 -64.2129 58.1065 -64.2129 77.3273C-64.2129 96.5481 -43.1488 112.13 -17.1649 112.13Z"/><path fill="#1684F8" d="M71.925 53.84C98.8992 53.84 120.766 37.4963 120.766 17.3352C120.766 -2.82581 98.8992 -19.1696 71.925 -19.1696C44.9509 -19.1696 23.084 -2.82581 23.084 17.3352C23.084 37.4963 44.9509 53.84 71.925 53.84Z"/><path fill="#003D7D" d="M-35.1774 61.5632C-10.7076 61.5632 9.12907 42.8567 9.12907 19.781C9.12907 -3.29459 -10.7076 -22.0011 -35.1774 -22.0011C-59.6472 -22.0011 -79.4839 -3.29459 -79.4839 19.781C-79.4839 42.8567 -59.6472 61.5632 -35.1774 61.5632Z"/></g><path stroke="#fff" stroke-linecap="round" stroke-linejoin="round" stroke-width="2.828" d="M10.416 17.1313V40.6102C10.416 40.9186 10.5153 41.2187 10.6991 41.4662L17.4137 50.5051M10.416 17.1313L17.4137 24.9365M10.416 17.1313H35.3886C35.7162 17.1313 36.034 17.2434 36.2891 17.4489L45.584 24.9365M17.4137 50.5051H44.1486C44.9413 50.5051 45.584 49.8624 45.584 49.0696V24.9365M17.4137 50.5051V37.7208M17.4137 24.9365H45.584M17.4137 24.9365V37.7208M17.4137 37.7208H34.2222"/></g><path fill="#1684F8" d="M75.0515 30.7374V27.5335H66.2001V22.2662H74.1283V19.198H66.2001V14.0935H75.0515V10.8897H62.7247V30.7374H75.0515ZM81.6431 30.7374V23.5151C81.6431 21.343 82.8921 19.9311 84.9285 19.9311C86.639 19.9311 87.7522 21.0172 87.7522 23.2708V30.7374H91.0647V22.4834C91.0647 19.008 89.327 16.9173 85.9602 16.9173C84.1411 16.9173 82.512 17.7047 81.6703 19.0623L81.3988 17.3246H78.3306V30.7374H81.6431ZM93.559 23.7323C93.559 27.615 96.057 30.4659 99.8582 30.4659C101.786 30.4659 103.442 29.6785 104.284 28.4295V30.656C104.284 32.8824 102.818 34.3214 100.537 34.3214C98.5006 34.3214 97.1702 33.2897 96.953 31.552H93.6405C94.0478 35.136 96.6815 37.3352 100.537 37.3352C104.881 37.3352 107.569 34.5386 107.569 30.0586V17.3246H104.501L104.311 19.1709C103.524 17.7318 101.949 16.8902 99.9396 16.8902C96.1113 16.8902 93.559 19.8225 93.559 23.7323ZM96.8987 23.6509C96.8987 21.4516 98.3105 19.7954 100.51 19.7954C102.818 19.7954 104.202 21.3702 104.202 23.6509C104.202 25.9859 102.791 27.5879 100.51 27.5879C98.3377 27.5879 96.8987 25.9045 96.8987 23.6509ZM112.654 14.6366C113.74 14.6366 114.636 13.7406 114.636 12.6274C114.636 11.5142 113.74 10.6453 112.654 10.6453C111.513 10.6453 110.617 11.5142 110.617 12.6274C110.617 13.7406 111.513 14.6366 112.654 14.6366ZM110.997 30.7374H114.31V17.3246H110.997V30.7374ZM121.045 30.7374V23.5151C121.045 21.343 122.294 19.9311 124.33 19.9311C126.041 19.9311 127.154 21.0172 127.154 23.2708V30.7374H130.466V22.4834C130.466 19.008 128.729 16.9173 125.362 16.9173C123.543 16.9173 121.913 17.7047 121.072 19.0623L120.8 17.3246H117.732V30.7374H121.045ZM139.721 31.0904C143.224 31.0904 145.667 29.3255 146.238 26.3932H143.17C142.789 27.6693 141.595 28.3752 139.776 28.3752C137.576 28.3752 136.327 27.1806 136.083 24.8184L146.183 24.7912V23.7866C146.183 19.6053 143.631 16.9173 139.613 16.9173C135.676 16.9173 132.933 19.8225 132.933 24.031C132.933 28.1852 135.73 31.0904 139.721 31.0904ZM139.64 19.6325C141.622 19.6325 142.898 20.8543 142.898 22.7006H136.164C136.49 20.6914 137.685 19.6325 139.64 19.6325ZM154.835 31.0904C158.337 31.0904 160.781 29.3255 161.351 26.3932H158.283C157.903 27.6693 156.708 28.3752 154.889 28.3752C152.69 28.3752 151.441 27.1806 151.197 24.8184L161.297 24.7912V23.7866C161.297 19.6053 158.745 16.9173 154.726 16.9173C150.789 16.9173 148.047 19.8225 148.047 24.031C148.047 28.1852 150.844 31.0904 154.835 31.0904ZM154.753 19.6325C156.736 19.6325 158.012 20.8543 158.012 22.7006H151.278C151.604 20.6914 152.799 19.6325 154.753 19.6325ZM172.365 17.2703C171.822 17.1345 171.36 17.0802 170.899 17.0802C169.107 17.0802 167.831 17.9762 167.261 19.3066L167.07 17.3517H163.948V30.7374H167.261V24.2211C167.261 21.6145 168.754 20.3384 171.143 20.3384H172.365V17.2703ZM179.16 13.1704C179.16 11.5413 178.237 10.5095 176.961 10.5095C175.766 10.5095 174.952 11.3512 174.952 12.5459C174.952 13.7406 175.739 14.4194 176.717 14.4194C177.015 14.4194 177.26 14.3651 177.477 14.2836C177.477 15.2339 176.635 15.967 175.468 16.1842V17.4875C177.64 17.216 179.16 15.4511 179.16 13.1704ZM180.098 26.6647C180.098 29.2984 182.216 31.0904 185.556 31.0904C188.868 31.0904 191.176 29.407 191.176 26.6919C191.176 24.6283 190.036 23.5966 187.782 23.0807L185.366 22.5105C184.225 22.239 183.628 21.7503 183.628 20.99C183.628 19.9854 184.388 19.3881 185.691 19.3881C186.967 19.3881 187.728 20.1212 187.755 21.2615H190.904C190.877 18.655 188.841 16.9173 185.827 16.9173C182.732 16.9173 180.505 18.4921 180.505 21.1258C180.505 23.2708 181.673 24.4111 184.089 24.9542L186.506 25.5243C187.701 25.7959 188.054 26.2846 188.054 26.9634C188.054 27.9408 187.212 28.5653 185.664 28.5653C184.144 28.5653 183.275 27.8322 183.248 26.6647H180.098ZM71.1145 59.0632C75.8117 59.0632 79.45 56.2938 80.2102 52.1125H76.5991C75.9475 54.3117 73.8839 55.7236 71.1959 55.7236C67.5576 55.7236 65.2226 53.0085 65.2226 48.8C65.2226 44.5643 67.5305 41.9035 71.1959 41.9035C73.8296 41.9035 75.8117 43.2611 76.4905 45.5689H80.1559C79.4771 41.3062 75.9746 38.5638 71.2774 38.5638C65.467 38.5638 61.5843 42.6637 61.5843 48.8271C61.5843 55.0448 65.3312 59.0632 71.1145 59.0632ZM91.2552 45.2703C90.7122 45.1345 90.2506 45.0802 89.789 45.0802C87.997 45.0802 86.7209 45.9762 86.1507 47.3066L85.9606 45.3517H82.8382V58.7374H86.1507V52.2211C86.1507 49.6145 87.644 48.3384 90.0334 48.3384H91.2552V45.2703ZM96.9583 59.0904C99.0489 59.0904 100.868 58.1401 101.438 56.7554L101.683 58.7374H104.588V50.592C104.588 46.8722 102.361 44.9173 98.7503 44.9173C95.112 44.9173 92.7226 46.8179 92.7226 49.7231H95.5464C95.5464 48.3112 96.6325 47.4967 98.5874 47.4967C100.271 47.4967 101.357 48.2298 101.357 50.0489V50.3476L97.3384 50.6463C94.1617 50.8906 92.3697 52.4383 92.3697 54.9091C92.3697 57.4342 94.1074 59.0904 96.9583 59.0904ZM98.0443 56.5925C96.551 56.5925 95.7365 55.9951 95.7365 54.7733C95.7365 53.6872 96.5238 53.0085 98.5874 52.8184L101.384 52.6012V53.3071C101.384 55.3706 100.081 56.5925 98.0443 56.5925ZM113.354 59.0904C115.39 59.0904 117.128 58.1944 117.942 56.6468L118.16 58.7374H121.201V38.5367H117.915V47.0351C117.074 45.7047 115.417 44.9173 113.544 44.9173C109.498 44.9173 107.055 47.904 107.055 52.0853C107.055 56.2395 109.471 59.0904 113.354 59.0904ZM114.087 56.0494C111.779 56.0494 110.367 54.366 110.367 51.9767C110.367 49.5874 111.779 47.8768 114.087 47.8768C116.395 47.8768 117.888 49.5602 117.888 51.9767C117.888 54.3932 116.395 56.0494 114.087 56.0494ZM127.992 58.7374V38.5367H124.707V58.7374H127.992ZM137.467 59.0904C140.97 59.0904 143.414 57.3255 143.984 54.3932H140.916C140.536 55.6693 139.341 56.3752 137.522 56.3752C135.323 56.3752 134.074 55.1806 133.829 52.8184L143.93 52.7912V51.7866C143.93 47.6053 141.377 44.9173 137.359 44.9173C133.422 44.9173 130.68 47.8225 130.68 52.031C130.68 56.1852 133.476 59.0904 137.467 59.0904ZM137.386 47.6325C139.368 47.6325 140.644 48.8543 140.644 50.7006H133.911C134.236 48.6914 135.431 47.6325 137.386 47.6325Z"/><defs><filter id="filter0_b_980_14271" width="72.727" height="47.677" x="190.667" y="-11.313" color-interpolation-filters="sRGB" filterUnits="userSpaceOnUse"><feFlood flood-opacity="0" result="BackgroundImageFix"/><feGaussianBlur in="BackgroundImage" stdDeviation="5.657"/><feComposite in2="SourceAlpha" operator="in" result="effect1_backgroundBlur_980_14271"/><feBlend in="SourceGraphic" in2="effect1_backgroundBlur_980_14271" mode="normal" result="shape"/></filter><filter id="filter1_f_980_14271" width="286.96" height="220.84" x="-122.839" y="-65.356" color-interpolation-filters="sRGB" filterUnits="userSpaceOnUse"><feFlood flood-opacity="0" result="BackgroundImageFix"/><feBlend in="SourceGraphic" in2="BackgroundImageFix" mode="normal" result="shape"/><feGaussianBlur result="effect1_foregroundBlur_980_14271" stdDeviation="21.677"/></filter><linearGradient id="paint0_linear_980_14271" x1="211.03" x2="234.589" y1="7.425" y2="15.645" gradientUnits="userSpaceOnUse"><stop stop-color="#2197D9"/><stop offset="1" stop-color="#29B392"/></linearGradient><clipPath id="clip0_980_14271"><rect width="56" height="56" y="5.818" fill="#fff" rx="10.182"/></clipPath></defs></svg>