<svg xmlns="http://www.w3.org/2000/svg" xmlns:xlink="http://www.w3.org/1999/xlink" width="500" zoomAndPan="magnify" viewBox="0 0 375 374.999991" height="500" preserveAspectRatio="xMidYMid meet" version="1.0"><defs><g/><clipPath id="id1"><path d="M 314.742188 193.878906 L 334.992188 193.878906 L 334.992188 214.128906 L 314.742188 214.128906 Z M 314.742188 193.878906 " clip-rule="nonzero"/></clipPath></defs><g fill="#ffffff" fill-opacity="1"><g transform="translate(21.405695, 214.124986)"><g><path d="M 33.472656 0.875 C 41.6875 0.875 48.414062 -2.882812 51.738281 -8.695312 L 52.699219 0 L 61.480469 0 L 61.480469 -33.382812 L 36.703125 -33.382812 L 36.703125 -24.425781 L 50.730469 -24.425781 C 49.507812 -15.03125 42.339844 -9.046875 33.472656 -9.046875 C 20.230469 -9.046875 14.59375 -19.050781 14.59375 -31.332031 C 14.59375 -42.777344 20.230469 -53.046875 33.296875 -53.046875 C 41.160156 -53.046875 47.628906 -49.289062 50.46875 -40.898438 L 60.300781 -45.007812 C 55.320312 -56.542969 45.53125 -62.746094 33.382812 -62.746094 C 12.976562 -62.746094 3.582031 -47.804688 3.582031 -30.894531 C 3.582031 -13.9375 13.152344 0.875 33.472656 0.875 Z M 33.472656 0.875 "/></g></g></g><g fill="#ffffff" fill-opacity="1"><g transform="translate(85.29928, 214.124986)"><g><path d="M 24.601562 0.875 C 38.101562 0.875 46.972656 -9.570312 46.972656 -21.933594 C 46.972656 -34.257812 38.101562 -44.570312 24.601562 -44.570312 C 11.097656 -44.570312 2.226562 -34.257812 2.226562 -21.933594 C 2.226562 -9.570312 11.097656 0.875 24.601562 0.875 Z M 24.601562 -8.300781 C 16.5625 -8.300781 13.328125 -14.769531 13.328125 -21.933594 C 13.328125 -29.101562 16.5625 -35.351562 24.601562 -35.351562 C 32.683594 -35.351562 35.875 -29.101562 35.875 -21.933594 C 35.875 -14.769531 32.683594 -8.300781 24.601562 -8.300781 Z M 24.601562 -8.300781 "/></g></g></g><g fill="#ffffff" fill-opacity="1"><g transform="translate(131.453288, 214.124986)"><g><path d="M 6.421875 19.140625 L 17.261719 19.140625 L 17.261719 -4.371094 C 20.320312 -0.613281 25.125 0.875 29.714844 0.875 C 41.773438 0.875 48.414062 -9.746094 48.414062 -21.847656 C 48.414062 -33.996094 41.773438 -44.570312 29.539062 -44.570312 C 24.863281 -44.570312 20.320312 -43.039062 17.261719 -39.28125 L 17.261719 -43.652344 L 6.421875 -43.652344 Z M 26.917969 -8.957031 C 19.621094 -8.957031 16.296875 -14.507812 16.296875 -21.847656 C 16.296875 -29.1875 19.621094 -35 26.917969 -35 C 34.257812 -35 37.578125 -29.1875 37.578125 -21.847656 C 37.578125 -14.507812 34.257812 -8.957031 26.917969 -8.957031 Z M 26.917969 -8.957031 "/></g></g></g><g fill="#ffffff" fill-opacity="1"><g transform="translate(179.486117, 214.124986)"><g><path d="M 24.511719 0.875 C 31.855469 0.875 37.667969 -1.703125 42.429688 -6.992188 L 35.089844 -13.414062 C 32.03125 -10.007812 28.535156 -8.78125 24.601562 -8.78125 C 17.742188 -8.78125 14.59375 -12.628906 13.675781 -18.351562 L 43.652344 -18.351562 C 43.871094 -18.964844 44.046875 -20.753906 44.046875 -22.546875 C 44.046875 -32.292969 39.109375 -44.570312 23.816406 -44.570312 C 9.046875 -44.570312 2.402344 -33.035156 2.402344 -21.671875 C 2.402344 -9.917969 9.480469 0.875 24.511719 0.875 Z M 13.675781 -26.042969 C 14.683594 -31.503906 17.433594 -35.613281 23.726562 -35.613281 C 29.277344 -35.613281 32.859375 -32.292969 33.558594 -26.042969 Z M 13.675781 -26.042969 "/></g></g></g><g fill="#ffffff" fill-opacity="1"><g transform="translate(222.974819, 214.124986)"><g><path d="M 19.488281 0.875 C 27.746094 0.875 36.53125 -3.582031 36.53125 -13.675781 C 36.53125 -29.714844 14.332031 -25.78125 14.332031 -32.378906 C 14.332031 -34.433594 16.472656 -36.136719 19.96875 -36.136719 C 24.6875 -36.136719 27.136719 -33.296875 28.621094 -30.585938 L 36.878906 -35.089844 C 33.558594 -40.988281 27.835938 -44.570312 20.320312 -44.570312 C 11.886719 -44.570312 4.109375 -40.199219 4.109375 -30.980469 C 4.109375 -15.554688 26.042969 -20.492188 26.042969 -13.152344 C 26.042969 -10.835938 23.902344 -7.953125 18.964844 -7.953125 C 13.152344 -7.953125 10.835938 -11.972656 9.65625 -15.117188 L 1.179688 -11.359375 C 3.320312 -4.632812 10.3125 0.875 19.488281 0.875 Z M 19.488281 0.875 "/></g></g></g><g fill="#ffffff" fill-opacity="1"><g transform="translate(259.55993, 214.124986)"><g><path d="M 6.421875 0 L 17.261719 0 L 17.261719 -22.109375 C 17.261719 -29.363281 20.492188 -34.914062 27.308594 -34.914062 C 33.734375 -34.914062 35.175781 -30.238281 35.175781 -24.863281 L 35.175781 0 L 46.011719 0 L 46.011719 -26.21875 C 46.011719 -35.351562 41.335938 -44.570312 29.886719 -44.570312 C 25.605469 -44.570312 20.753906 -42.867188 17.261719 -38.582031 L 17.261719 -61.742188 L 6.421875 -61.742188 Z M 6.421875 0 "/></g></g></g><g clip-path="url(#id1)"><path fill="#1e88e9" d="M 324.867188 193.878906 C 319.273438 193.878906 314.742188 198.414062 314.742188 204.003906 C 314.742188 209.597656 319.273438 214.128906 324.867188 214.128906 C 330.457031 214.128906 334.992188 209.597656 334.992188 204.003906 C 334.992188 198.414062 330.457031 193.878906 324.867188 193.878906 " fill-opacity="1" fill-rule="nonzero"/></g></svg>