<svg xmlns="http://www.w3.org/2000/svg" xmlns:xlink="http://www.w3.org/1999/xlink" width="500" zoomAndPan="magnify" viewBox="0 0 375 374.999991" height="500" preserveAspectRatio="xMidYMid meet" version="1.0"><defs><clipPath id="id1"><path d="M 107.628906 86.078125 L 228 86.078125 L 228 249 L 107.628906 249 Z M 107.628906 86.078125 " clip-rule="nonzero"/></clipPath><clipPath id="id2"><path d="M 192 164 L 267.378906 164 L 267.378906 288.578125 L 192 288.578125 Z M 192 164 " clip-rule="nonzero"/></clipPath></defs><rect x="-37.5" width="450" fill="#ffffff" y="-37.499999" height="449.999989" fill-opacity="1"/><rect x="-37.5" width="450" fill="#1e88e9" y="-37.499999" height="449.999989" fill-opacity="1"/><rect x="-37.5" width="450" fill="#ffffff" y="-37.499999" height="449.999989" fill-opacity="1"/><rect x="-37.5" width="450" fill="#1e88e9" y="-37.499999" height="449.999989" fill-opacity="1"/><g clip-path="url(#id1)"><path fill="#ffffff" d="M 149.054688 248.128906 L 109.394531 248.128906 C 108.421875 248.128906 107.632812 247.339844 107.632812 246.371094 L 107.632812 155.535156 C 107.632812 117.304688 141.410156 86.199219 182.921875 86.199219 L 225.71875 86.199219 C 226.691406 86.199219 227.476562 86.988281 227.476562 87.957031 L 227.476562 124.210938 C 227.476562 125.179688 226.691406 125.96875 225.71875 125.96875 L 182.921875 125.96875 C 165.21875 125.96875 150.816406 139.230469 150.816406 155.535156 L 150.816406 246.371094 C 150.816406 247.339844 150.027344 248.128906 149.054688 248.128906 " fill-opacity="1" fill-rule="nonzero"/></g><g clip-path="url(#id2)"><path fill="#ffffff" d="M 192.085938 286.664062 L 192.085938 250.390625 C 192.085938 249.445312 192.832031 248.683594 193.777344 248.636719 C 210.695312 247.824219 224.195312 234.890625 224.195312 219.109375 L 224.195312 206.019531 C 224.195312 205.046875 223.40625 204.261719 222.433594 204.261719 L 193.84375 204.261719 C 192.875 204.261719 192.085938 203.476562 192.085938 202.503906 L 192.085938 166.253906 C 192.085938 165.28125 192.875 164.496094 193.84375 164.496094 L 265.617188 164.496094 C 266.585938 164.496094 267.375 165.28125 267.375 166.253906 L 267.375 219.109375 C 267.375 256.785156 234.574219 287.539062 193.886719 288.421875 C 192.898438 288.445312 192.085938 287.652344 192.085938 286.664062 " fill-opacity="1" fill-rule="nonzero"/></g></svg>