<svg width="412" height="318" viewBox="0 0 412 318" fill="none" xmlns="http://www.w3.org/2000/svg">
<path d="M411.5 62C409.861 78.662 402.292 182.818 396.284 198.412C391.815 210.015 386.285 221.182 379.905 231.682C378.437 234.093 376.922 236.475 375.365 238.822C372.942 242.472 370.413 246.033 367.789 249.487C361.203 258.183 354.028 266.237 346.417 273.495C339.601 279.992 332.444 285.841 325.045 290.935C320.865 293.812 322.881 300.351 327.958 300.351H330.299C330.612 300.351 330.918 300.369 331.219 300.404C335.7 300.876 339.161 304.767 338.942 309.425C338.724 314.077 334.715 317.661 330.051 317.661H84.082C79.159 317.661 75.203 313.558 75.433 308.587C75.545 306.264 76.606 304.201 78.216 302.727C79.826 301.247 81.995 300.351 84.324 300.351C89.253 300.351 91.375 294.107 87.472 291.1C71.028 278.418 43.542 252.412 28.066 211.276C20.449 191.036 15.738 167.134 16.675 139.353C20.466 27.3338 156.5 88 244 43.5C356.365 -19.5 411.5 -12.5 411.5 62Z" fill="url(#paint0_linear_4_217)"/>
<path opacity="0.08" d="M346.417 273.496C340.952 283.802 335.616 293.058 331.218 300.405C324.856 311.035 320.458 317.662 320.458 317.662H84.082C79.159 317.662 75.203 313.559 75.433 308.588C75.545 306.265 76.606 304.202 78.216 302.728C79.826 301.248 81.995 300.352 84.324 300.352C89.253 300.352 91.375 294.108 87.472 291.101C85.143 289.303 82.596 287.245 79.89 284.904C74.713 280.441 68.965 274.975 63.099 268.472C58.931 263.85 54.703 258.708 50.588 253.025H50.582C42.151 241.393 34.174 227.514 28.066 211.277C46.656 229.967 73.953 249.417 108.403 251.711C176.624 256.262 304.54 129.49 360.255 151.653C395.741 165.774 369.876 229.266 346.417 273.496Z" fill="black"/>
<path opacity="0.25" d="M95.6093 222.01H117.21V213.924H95.6093V222.01Z" fill="black"/>
<path opacity="0.25" d="M71.406 222.01H93.007V213.924H71.406V222.01Z" fill="black"/>
<path opacity="0.25" d="M83.5082 233.394H105.109V225.308H83.5082V233.394Z" fill="white"/>
<path opacity="0.25" d="M59.3049 233.394H80.9059V225.308H59.3049V233.394Z" fill="white"/>
<path opacity="0.25" d="M265.593 13.1788H243.992V21.2648H265.593V13.1788Z" fill="black"/>
<path opacity="0.25" d="M289.796 13.1788H268.195V21.2648H289.796V13.1788Z" fill="black"/>
<path opacity="0.25" d="M277.694 24.5618H256.093V32.6478H277.694V24.5618Z" fill="#555555"/>
<path opacity="0.25" d="M301.898 24.5618H280.297V32.6478H301.898V24.5618Z" fill="#555555"/>
<path d="M117.054 123.627C127.724 148.379 113.874 178.144 86.12 190.108C58.365 202.072 27.216 191.706 16.546 166.954C5.876 142.202 19.726 112.437 47.48 100.473C75.234 88.5088 106.384 98.8748 117.054 123.627Z" fill="url(#paint1_radial_4_217)"/>
<path d="M92.199 88.9698V154.903C92.199 157.285 90.265 159.219 87.883 159.219H4.31C1.928 159.219 0 157.285 0 154.903V88.9698C0 86.5938 1.928 84.6598 4.31 84.6598H87.883C90.266 84.6598 92.199 86.5938 92.199 88.9698Z" fill="url(#paint2_linear_4_217)"/>
<path d="M38.989 96.0738H7.896C6.989 96.0738 6.254 95.3388 6.254 94.4318C6.254 93.5248 6.989 92.7898 7.896 92.7898H38.989C39.896 92.7898 40.631 93.5248 40.631 94.4318C40.631 95.3388 39.896 96.0738 38.989 96.0738Z" fill="#002A66"/>
<path d="M38.989 107.192H7.896C6.989 107.192 6.254 106.457 6.254 105.55C6.254 104.643 6.989 103.908 7.896 103.908H38.989C39.896 103.908 40.631 104.643 40.631 105.55C40.631 106.457 39.896 107.192 38.989 107.192Z" fill="#EEF8FF"/>
<path d="M49.398 118.31H7.896C6.989 118.31 6.254 117.575 6.254 116.668C6.254 115.761 6.989 115.026 7.896 115.026H49.398C50.305 115.026 51.04 115.761 51.04 116.668C51.04 117.575 50.305 118.31 49.398 118.31Z" fill="#002A66"/>
<path d="M49.398 149.454H7.896C6.989 149.454 6.254 148.719 6.254 147.812C6.254 146.905 6.989 146.17 7.896 146.17H49.398C50.305 146.17 51.04 146.905 51.04 147.812C51.04 148.718 50.305 149.454 49.398 149.454Z" fill="#002A66"/>
<path d="M79.593 149.454H58.657C57.75 149.454 57.015 148.719 57.015 147.812C57.015 146.905 57.75 146.17 58.657 146.17H79.593C80.5 146.17 81.235 146.905 81.235 147.812C81.236 148.718 80.5 149.454 79.593 149.454Z" fill="#EEF8FF"/>
<path d="M79.408 156.625C84.2758 156.625 88.222 152.679 88.222 147.811C88.222 142.943 84.2758 138.997 79.408 138.997C74.5402 138.997 70.594 142.943 70.594 147.811C70.594 152.679 74.5402 156.625 79.408 156.625Z" fill="url(#paint3_radial_4_217)"/>
<path opacity="0.25" d="M92.199 88.9698V118.09H45.009C43.016 118.09 41.401 116.474 41.401 114.482V84.6608H87.884C90.266 84.6598 92.199 86.5938 92.199 88.9698Z" fill="black"/>
<path d="M208.964 12.1748H47.503V8.63776C47.503 6.96276 48.861 5.60577 50.535 5.60577H205.932C207.607 5.60577 208.964 6.96276 208.964 8.63776V12.1748Z" fill="url(#paint4_linear_4_217)"/>
<path opacity="0.86" d="M205.361 111.988H51.106C49.116 111.988 47.503 110.375 47.503 108.385V12.1748H208.964V108.385C208.964 110.374 207.351 111.988 205.361 111.988Z" fill="#B3B3FF"/>
<path d="M202.02 8.88976C202.02 9.51976 201.509 10.0308 200.879 10.0308C200.249 10.0308 199.738 9.51976 199.738 8.88976C199.738 8.25976 200.249 7.74877 200.879 7.74877C201.509 7.74777 202.02 8.25876 202.02 8.88976Z" fill="#EEF8FF"/>
<path d="M195.05 8.88976C195.05 9.51976 194.539 10.0308 193.909 10.0308C193.279 10.0308 192.768 9.51976 192.768 8.88976C192.768 8.25976 193.279 7.74877 193.909 7.74877C194.539 7.74777 195.05 8.25876 195.05 8.88976Z" fill="#EEF8FF"/>
<path d="M188.079 8.88976C188.079 9.51976 187.568 10.0308 186.938 10.0308C186.308 10.0308 185.797 9.51976 185.797 8.88976C185.797 8.25976 186.308 7.74877 186.938 7.74877C187.568 7.74777 188.079 8.25876 188.079 8.88976Z" fill="#EEF8FF"/>
<path d="M146.427 24.5558H63.801C62.894 24.5558 62.159 23.8208 62.159 22.9138C62.159 22.0068 62.894 21.2718 63.801 21.2718H146.427C147.334 21.2718 148.069 22.0068 148.069 22.9138C148.069 23.8208 147.334 24.5558 146.427 24.5558Z" fill="white"/>
<path d="M146.427 34.9158H63.801C62.894 34.9158 62.159 34.1808 62.159 33.2728C62.159 32.3658 62.894 31.6308 63.801 31.6308H146.427C147.334 31.6308 148.069 32.3658 148.069 33.2728C148.069 34.1798 147.334 34.9158 146.427 34.9158Z" fill="white"/>
<path d="M101.829 45.2758H63.801C62.894 45.2758 62.159 44.5408 62.159 43.6338C62.159 42.7268 62.894 41.9918 63.801 41.9918H101.829C102.736 41.9918 103.471 42.7268 103.471 43.6338C103.471 44.5398 102.736 45.2758 101.829 45.2758Z" fill="#002A66"/>
<path d="M146.427 86.3038H63.801C62.894 86.3038 62.159 85.5688 62.159 84.6618C62.159 83.7548 62.894 83.0198 63.801 83.0198H146.427C147.334 83.0198 148.069 83.7548 148.069 84.6618C148.069 85.5688 147.334 86.3038 146.427 86.3038Z" fill="#002A66"/>
<path d="M101.829 96.6638H63.801C62.894 96.6638 62.159 95.9288 62.159 95.0218C62.159 94.1148 62.894 93.3798 63.801 93.3798H101.829C102.736 93.3798 103.471 94.1148 103.471 95.0218C103.471 95.9288 102.736 96.6638 101.829 96.6638Z" fill="#002A66"/>
<path d="M179.996 31.3838C172.336 31.3838 166.105 37.6158 166.105 45.2758C166.105 52.9358 172.337 59.1678 179.996 59.1678C187.656 59.1678 193.888 52.9358 193.888 45.2758C193.888 37.6158 187.656 31.3838 179.996 31.3838ZM179.996 56.8088C173.637 56.8088 168.463 51.6348 168.463 45.2758C168.463 38.9158 173.637 33.7428 179.996 33.7428C186.356 33.7428 191.53 38.9168 191.53 45.2758C191.53 51.6348 186.356 56.8088 179.996 56.8088Z" fill="#002A66"/>
<path d="M185.763 48.4088C182.583 51.5878 177.409 51.5888 174.23 48.4088C173.904 48.0838 173.377 48.0838 173.051 48.4088C172.725 48.7348 172.725 49.2628 173.051 49.5878C174.966 51.5028 177.481 52.4598 179.997 52.4598C182.512 52.4598 185.028 51.5018 186.943 49.5878C187.269 49.2618 187.269 48.7338 186.943 48.4088C186.616 48.0838 186.089 48.0838 185.763 48.4088Z" fill="#002A66"/>
<path d="M175.006 44.5148C175.774 44.5148 176.396 43.8928 176.396 43.1248C176.396 42.3568 175.774 41.7348 175.006 41.7348C174.238 41.7348 173.616 42.3568 173.616 43.1248C173.616 43.8928 174.238 44.5148 175.006 44.5148Z" fill="#002A66"/>
<path d="M184.987 44.5148C185.754 44.5148 186.377 43.8928 186.377 43.1248C186.377 42.3568 185.755 41.7348 184.987 41.7348C184.219 41.7348 183.597 42.3568 183.597 43.1248C183.597 43.8928 184.219 44.5148 184.987 44.5148Z" fill="#002A66"/>
<path d="M69.621 74.6718C69.275 74.6718 68.928 74.5308 68.664 74.2478L62.555 67.7088C62.026 67.1428 62.026 66.2258 62.555 65.6608L68.768 59.0128C69.297 58.4468 70.153 58.4468 70.682 59.0128C71.211 59.5778 71.211 60.4958 70.682 61.0608L65.426 66.6848L70.579 72.1998C71.108 72.7658 71.108 73.6828 70.579 74.2478C70.314 74.5298 69.967 74.6718 69.621 74.6718Z" fill="url(#paint5_linear_4_217)"/>
<path d="M89.194 74.6718C88.848 74.6718 88.502 74.5308 88.237 74.2478C87.708 73.6828 87.708 72.7648 88.237 72.1998L93.391 66.6848L88.134 61.0608C87.605 60.4958 87.605 59.5788 88.134 59.0128C88.663 58.4468 89.519 58.4468 90.048 59.0128L96.262 65.6608C96.516 65.9328 96.658 66.3008 96.658 66.6848C96.658 67.0688 96.515 67.4368 96.262 67.7088L90.152 74.2478C89.887 74.5298 89.54 74.6718 89.194 74.6718Z" fill="url(#paint6_linear_4_217)"/>
<path d="M76.375 76.4678C76.206 76.4678 76.033 76.4338 75.866 76.3608C75.173 76.0598 74.841 75.2148 75.122 74.4738L81.186 58.5308C81.468 57.7918 82.253 57.4318 82.95 57.7358C83.643 58.0368 83.975 58.8818 83.694 59.6228L77.63 75.5658C77.415 76.1268 76.91 76.4678 76.375 76.4678Z" fill="url(#paint7_linear_4_217)"/>
<path d="M201.456 70.6218H158.537C156.394 70.6218 154.65 68.8778 154.65 66.7348V23.8158C154.65 21.6728 156.394 19.9288 158.537 19.9288H201.456C203.599 19.9288 205.343 21.6728 205.343 23.8158V66.7348C205.343 68.8778 203.599 70.6218 201.456 70.6218ZM158.537 22.2868C157.694 22.2868 157.008 22.9728 157.008 23.8158V66.7348C157.008 67.5778 157.694 68.2638 158.537 68.2638H201.456C202.299 68.2638 202.985 67.5778 202.985 66.7348V23.8158C202.985 22.9728 202.299 22.2868 201.456 22.2868H158.537Z" fill="#002A66"/>
<path d="M138.986 59.8338V58.5008C138.986 57.9958 138.576 57.5858 138.071 57.5858H135.893C135.721 56.8578 135.433 56.1758 135.049 55.5568L136.592 54.0138C136.949 53.6568 136.949 53.0768 136.592 52.7198L135.649 51.7768C135.292 51.4198 134.712 51.4198 134.355 51.7768L132.812 53.3198C132.193 52.9368 131.511 52.6488 130.783 52.4758V50.2978C130.783 49.7928 130.373 49.3828 129.868 49.3828H128.535C128.03 49.3828 127.62 49.7928 127.62 50.2978V52.4758C126.892 52.6478 126.21 52.9358 125.591 53.3198L124.048 51.7768C123.691 51.4198 123.111 51.4198 122.754 51.7768L121.811 52.7198C121.454 53.0768 121.454 53.6568 121.811 54.0138L123.354 55.5568C122.971 56.1758 122.682 56.8578 122.51 57.5858H120.332C119.827 57.5858 119.417 57.9958 119.417 58.5008V59.8338C119.417 60.3388 119.827 60.7488 120.332 60.7488H122.51C122.682 61.4768 122.97 62.1588 123.354 62.7778L121.811 64.3208C121.454 64.6778 121.454 65.2578 121.811 65.6148L122.754 66.5578C123.111 66.9148 123.691 66.9148 124.048 66.5578L125.591 65.0148C126.21 65.3978 126.892 65.6858 127.62 65.8588V68.0368C127.62 68.5418 128.03 68.9518 128.535 68.9518H129.868C130.373 68.9518 130.783 68.5418 130.783 68.0368V65.8588C131.511 65.6868 132.193 65.3988 132.812 65.0148L134.355 66.5578C134.712 66.9148 135.292 66.9148 135.649 66.5578L136.592 65.6148C136.949 65.2578 136.949 64.6778 136.592 64.3208L135.049 62.7778C135.432 62.1588 135.72 61.4768 135.893 60.7488H138.071C138.576 60.7488 138.986 60.3388 138.986 59.8338ZM129.842 62.8878C127.263 63.3148 125.054 61.1058 125.48 58.5268C125.738 56.9648 126.998 55.7038 128.561 55.4458C131.14 55.0198 133.348 57.2278 132.922 59.8068C132.664 61.3688 131.404 62.6298 129.842 62.8878Z" fill="url(#paint8_linear_4_217)"/>
<path d="M287.481 297.954L312.244 296.563C312.244 296.563 322.102 296.439 313.512 291.386C311.997 290.496 310.653 289.499 309.456 288.468C305.565 285.09 303.301 281.281 302.281 279.277L297.417 280.556L288.915 282.796C288.838 282.814 288.768 282.831 288.691 282.843C288.076 287.89 287.481 297.954 287.481 297.954Z" fill="url(#paint9_linear_4_217)"/>
<path d="M320.458 300.354C320.458 300.354 319.956 292.145 313.511 291.386C307.066 290.627 306.327 296.895 306.327 296.895L287.481 295.838L286.978 300.354H320.458Z" fill="#010D19"/>
<path d="M297.415 280.555C298.17 283.013 300.286 288.591 304.284 290.248C306.224 288.697 308.211 288.432 309.455 288.467C305.564 285.089 303.3 281.28 302.28 279.276L297.415 280.555Z" fill="#010D19"/>
<path d="M303.058 277.424L286.479 279.193C286.479 279.193 279.97 227.204 274.104 205.725C272.211 210.159 268.397 226.16 264.836 242.102C260.685 260.715 256.877 279.258 256.877 279.258C256.877 279.258 247.373 280.325 242.067 276.027C243.7 246.371 255.185 187.177 256.689 178.516C256.701 178.587 256.718 178.657 256.736 178.728C256.842 179.123 256.96 179.447 257.102 179.701C257.179 179.837 257.285 179.978 257.415 180.12C257.415 180.12 257.421 180.126 257.433 180.143C258.807 181.647 262.928 183.297 268.682 183.48C274.879 183.674 282.974 182.165 291.593 176.918C291.794 176.517 291.817 175.562 291.705 174.188C291.994 174.471 292.548 177.955 293.256 183.486C296.501 208.88 303.058 277.424 303.058 277.424Z" fill="url(#paint10_linear_4_217)"/>
<path d="M256.498 148.241L255.337 152.769L255.254 153.082L254.977 154.155V154.161C254.977 154.161 252.837 154.32 249.995 153.406C248.639 152.97 247.118 152.292 245.597 151.236C245.22 150.971 244.842 150.688 244.465 150.375C244.99 144.261 246.983 133.478 247.631 130.046C247.761 129.356 247.837 128.967 247.837 128.967L256.498 148.241Z" fill="url(#paint11_linear_4_217)"/>
<path d="M256.876 153.547C256.876 153.547 255.638 159.018 254.058 164.077C252.932 167.65 251.641 171.022 250.485 172.119C247.684 174.772 240.486 179.129 240.486 179.129L236.318 170.509L242.479 165.108L244.902 154.319L245.598 151.236C250.303 154.502 254.978 154.16 254.978 154.16L255.255 153.081L256.876 153.547Z" fill="url(#paint12_linear_4_217)"/>
<path d="M291.59 176.918C282.97 182.165 274.875 183.675 268.679 183.48C262.895 183.297 258.762 181.629 257.412 180.119C257.282 179.977 257.176 179.836 257.099 179.7C256.958 179.446 256.84 179.122 256.733 178.727C256.715 178.656 256.698 178.585 256.686 178.515C256.238 176.605 256.167 173.386 256.191 169.99C256.191 169.471 256.197 168.952 256.203 168.428C256.221 167.019 256.244 165.604 256.256 164.272V164.254C256.274 162.485 256.268 160.864 256.185 159.561C256.156 158.983 256.108 158.47 256.043 158.04C256.013 157.881 255.99 157.727 255.961 157.592C255.949 157.545 255.937 157.492 255.926 157.439C255.755 156.684 255.425 155.552 254.977 154.161V154.155C254.576 152.876 254.075 151.384 253.538 149.768C253.379 149.296 253.22 148.813 253.055 148.318C252.566 146.85 252.047 145.299 251.534 143.743C251.133 142.523 250.732 141.296 250.349 140.093C250.196 139.604 250.043 139.12 249.895 138.643C248.881 135.371 248.038 132.376 247.672 130.3C247.66 130.212 247.643 130.129 247.631 130.047C247.596 129.823 247.566 129.617 247.542 129.416C247.636 129.269 247.737 129.115 247.837 128.968C247.908 128.862 247.979 128.756 248.049 128.655C249.888 126.02 252.4 123.673 254.658 121.857C255.306 121.338 255.937 120.861 256.521 120.436C256.993 120.088 257.435 119.776 257.842 119.499L257.883 119.475L260.542 117.96C263.549 117.459 266.355 117.264 268.884 117.252C272.339 117.234 275.269 117.564 277.468 117.93C280.251 118.396 281.86 118.932 281.86 118.932L281.995 120.654L282.119 122.181L282.821 130.877L282.945 132.404L282.998 133.082C282.998 133.082 282.998 133.088 283.004 133.106C283.081 133.413 283.847 136.455 284.891 140.812C285.009 141.29 285.127 141.785 285.251 142.292C285.858 144.821 286.53 147.698 287.22 150.694C287.326 151.183 287.438 151.673 287.55 152.168C288.187 154.974 288.818 157.852 289.39 160.605C289.49 161.106 289.591 161.601 289.697 162.091C290.334 165.234 290.876 168.17 291.248 170.593C291.331 171.118 291.401 171.625 291.466 172.097C291.572 172.869 291.649 173.571 291.702 174.19C291.814 175.562 291.791 176.517 291.59 176.918Z" fill="url(#paint13_linear_4_217)"/>
<g opacity="0.35">
<path opacity="0.25" d="M282.122 122.181L247.673 130.299C247.661 130.211 247.644 130.128 247.632 130.046C247.597 129.822 247.567 129.616 247.543 129.415C247.637 129.268 247.738 129.114 247.838 128.967C247.909 128.861 247.98 128.755 248.05 128.654L281.998 120.653L282.122 122.181Z" fill="black"/>
<path opacity="0.25" d="M282.947 132.405L250.349 140.093C250.196 139.604 250.043 139.12 249.895 138.643L282.823 130.878L282.947 132.405Z" fill="black"/>
<path opacity="0.25" d="M285.252 142.292L253.538 149.768C253.379 149.296 253.22 148.813 253.055 148.318L284.892 140.813C285.011 141.29 285.128 141.785 285.252 142.292Z" fill="black"/>
<path opacity="0.25" d="M287.552 152.168L256.186 159.561C256.157 158.983 256.109 158.47 256.044 158.04L287.221 150.694C287.328 151.183 287.44 151.672 287.552 152.168Z" fill="black"/>
<path opacity="0.25" d="M289.698 162.09L256.192 169.99C256.192 169.471 256.198 168.952 256.204 168.428L289.392 160.604C289.491 161.106 289.592 161.601 289.698 162.09Z" fill="black"/>
<path opacity="0.25" d="M291.467 172.096L257.413 180.12C257.283 179.978 257.177 179.837 257.1 179.701C256.959 179.447 256.841 179.123 256.734 178.728L291.248 170.592C291.331 171.117 291.402 171.624 291.467 172.096Z" fill="black"/>
</g>
<path opacity="0.25" d="M277.47 117.931C275.86 122.418 272.329 128.691 265.101 128.968C256.464 129.304 254.913 124.251 254.659 121.858C255.307 121.339 255.938 120.862 256.522 120.437C256.994 120.089 257.436 119.777 257.843 119.5L257.884 119.476L260.543 117.961C263.55 117.46 266.356 117.265 268.885 117.253C272.34 117.235 275.271 117.565 277.47 117.931Z" fill="black"/>
<path d="M265.1 124.357C264.416 125.011 263.561 125.395 262.565 125.218C260.714 124.894 259.558 123.632 258.91 122.624C258.503 121.993 258.291 121.457 258.232 121.292C258.22 121.262 258.214 121.245 258.214 121.245C258.214 121.245 257.783 121.487 256.711 121.298C256.658 121.292 256.605 121.28 256.552 121.269C256.517 121.263 256.499 121.257 256.499 121.257C255.685 121.092 254.541 120.685 252.997 119.818C250.721 118.539 248.911 116.593 247.543 114.695C247.242 114.276 246.959 113.858 246.7 113.451C246.405 112.991 246.14 112.543 245.904 112.119C251.086 111.6 254.5 107.915 256.027 103.517C256.027 103.517 258.869 108.192 259.5 108.192C260.131 108.192 260.638 103.77 262.53 103.711C262.854 103.699 263.125 103.776 263.355 103.923C264.458 104.625 264.446 107.018 263.544 109.518C262.972 111.098 265.313 112.425 265.82 112.554C265.85 112.56 265.891 112.536 265.95 112.477C266.08 114.14 266.369 115.961 266.634 117.312C266.776 118.025 266.911 118.609 267.017 118.963C267.341 120.071 266.633 122.901 265.1 124.357Z" fill="url(#paint14_linear_4_217)"/>
<path d="M251.534 106.817C251.434 107.035 249.765 110.419 245.827 111.988C245.662 111.693 245.514 111.41 245.379 111.145C248.622 109.635 251.363 106.982 251.534 106.817Z" fill="#FFB7A9"/>
<path d="M269.723 102.259C268.921 107.259 266.598 111.846 265.95 112.476C265.891 112.535 265.85 112.559 265.82 112.553C265.313 112.423 262.972 111.097 263.544 109.517C264.629 106.504 264.428 103.645 262.53 103.71C260.637 103.769 260.13 108.191 259.5 108.191C258.869 108.191 256.027 103.516 256.027 103.516C254.5 107.914 251.086 111.599 245.904 112.118C245.721 112.142 245.539 112.153 245.35 112.165C245.515 112.106 245.674 112.047 245.828 111.988C249.766 110.42 251.435 107.036 251.535 106.817C251.364 106.982 248.622 109.635 245.38 111.145C243.806 111.87 242.12 112.33 240.551 112.112C240.433 111.959 240.315 111.799 240.215 111.634C235.658 104.848 238.936 90.6918 245.321 87.9798C245.321 87.9798 243.664 87.5018 241.671 86.0338C244.513 86.6528 251.765 84.1408 254.276 84.4708C256.782 84.8008 257.59 86.7938 257.59 86.7938C257.59 86.7938 260.762 83.9348 264.364 85.1368C262.595 85.0718 261.269 87.2178 261.269 87.2178C261.269 87.2178 268.032 88.7328 269.671 95.8728C270.135 97.8908 270.07 100.113 269.723 102.259Z" fill="url(#paint15_linear_4_217)"/>
<path opacity="0.25" d="M265.1 124.357C264.416 125.011 263.561 125.395 262.565 125.218C260.714 124.894 259.558 123.632 258.91 122.624C258.503 121.993 258.291 121.457 258.232 121.292C259.476 121.003 261.139 119.977 262.418 116.799V116.793C262.418 116.787 262.424 116.787 262.424 116.781C263.609 117.653 263.408 122.983 265.1 124.357Z" fill="black"/>
<path opacity="0.25" d="M245.827 111.988C245.662 111.693 245.514 111.41 245.379 111.145C248.622 109.636 251.363 106.983 251.534 106.817C251.434 107.035 249.765 110.419 245.827 111.988Z" fill="black"/>
<path opacity="0.25" d="M263.355 103.922C260.353 104.907 261.595 109.745 259.974 109.993C257.952 110.311 256.976 107.307 256.976 107.307C256.976 107.307 255.708 109.836 251.858 111.988C250.148 112.943 248.267 113.321 246.699 113.45C246.404 112.99 246.139 112.542 245.903 112.118C251.085 111.599 254.499 107.914 256.026 103.516C256.026 103.516 258.868 108.191 259.499 108.191C260.13 108.191 260.637 103.769 262.529 103.71C262.854 103.698 263.125 103.775 263.355 103.922Z" fill="black"/>
<path opacity="0.25" d="M262.418 116.799C261.139 119.977 259.476 121.003 258.232 121.292C258.22 121.262 258.214 121.245 258.214 121.245C258.214 121.245 257.742 121.51 256.551 121.269C256.516 121.263 256.498 121.257 256.498 121.257C255.684 121.092 254.54 120.685 252.996 119.818C250.72 118.539 248.91 116.593 247.542 114.695C247.925 114.654 248.468 114.772 249.158 115.314C250.72 116.546 252.141 119.388 255.696 120.149C259.228 120.908 261.51 118.131 262.418 116.799Z" fill="white"/>
<path opacity="0.25" d="M262.552 105.76C262.552 105.76 261.944 107.529 262.216 108.097C262.489 108.666 264.416 106.929 262.552 105.76Z" fill="black"/>
<path opacity="0.25" d="M269.723 102.259C268.921 107.259 266.598 111.846 265.95 112.476C265.891 112.535 265.85 112.559 265.82 112.553C265.313 112.423 262.972 111.097 263.544 109.517C264.629 106.504 264.428 103.645 262.53 103.71C260.637 103.769 260.13 108.191 259.5 108.191C258.869 108.191 256.027 103.516 256.027 103.516C254.5 107.914 251.086 111.599 245.904 112.118C245.721 112.142 245.539 112.153 245.35 112.165C245.515 112.106 245.674 112.047 245.828 111.988C249.766 110.42 251.435 107.036 251.535 106.817C251.364 106.982 248.622 109.635 245.38 111.145C243.806 111.87 242.12 112.33 240.551 112.112C240.433 111.959 240.315 111.799 240.215 111.634C243.729 109.276 252.484 102.737 252.331 96.2218C254.035 99.4408 253.658 103.515 253.658 103.515C253.658 103.515 255.262 99.2518 254.979 95.6498C257.544 99.2518 258.233 102.383 258.233 102.383C258.233 102.383 258.581 98.7808 262.749 98.1138C266.923 97.4538 267.094 103.515 267.094 103.515C267.094 103.515 268.533 101.339 266.923 97.4538C268.013 98.0908 268.962 100.001 269.723 102.259Z" fill="black"/>
<path d="M263.985 127.333C258.836 127.986 257.212 123.125 256.71 121.297C257.783 121.486 258.213 121.244 258.213 121.244C258.213 121.244 258.219 121.262 258.231 121.291C258.29 121.456 258.502 121.993 258.909 122.623C259.557 123.631 260.713 124.893 262.564 125.217C263.56 125.394 264.415 125.011 265.099 124.356C266.632 122.9 267.339 120.07 267.015 118.961C266.909 118.607 266.773 118.024 266.632 117.31C267.404 117.275 268.159 117.257 268.884 117.251C269.08 121.274 268.47 126.764 263.985 127.333Z" fill="#0049B2"/>
<path opacity="0.25" d="M256.257 164.254C256.286 161.418 256.251 158.948 255.962 157.592C255.803 156.843 255.455 155.652 254.977 154.161C254.977 154.161 252.837 154.32 249.995 153.406C250.449 151.767 250.399 148.556 250.481 144.547C250.516 142.932 250.354 140.518 249.995 139.062C251.911 143.39 254.446 148.307 255.337 152.77C256.292 157.574 256.622 161.849 256.257 164.254Z" fill="black"/>
<path opacity="0.25" d="M291.59 176.918C282.97 182.165 274.875 183.675 268.679 183.48C276.043 180.396 273.885 172.974 267.093 171.612C273.926 166.559 279.431 162.076 278.325 145.717C277.76 137.36 278.956 130.429 278.956 130.429L283.006 133.106C283.295 134.25 293.212 173.682 291.59 176.918Z" fill="black"/>
<path d="M291.767 138.643C291.749 138.784 291.708 138.92 291.643 139.062C291.277 139.858 290.151 140.648 288.76 141.373C286.307 142.641 283.029 143.684 281.585 144.115C281.125 144.251 280.854 144.327 280.854 144.327C280.854 144.327 276.762 136.203 276.031 129.122C275.565 124.623 276.455 120.543 280.618 119.223C281.001 119.105 281.42 119.005 281.862 118.934C281.862 118.934 287.593 122.118 291.584 137.895C291.643 138.142 291.708 138.389 291.767 138.643Z" fill="url(#paint16_linear_4_217)"/>
<path d="M295.505 159.991C293.866 163.151 267.712 175.91 267.712 175.91C267.712 175.91 265.69 179.701 262.028 180.456C258.361 181.217 255.584 179.194 253.438 179.071C251.286 178.941 248.256 181.217 248.256 181.217C248.256 181.217 247.885 181.24 247.572 181.081C247.183 180.88 246.888 180.385 247.542 179.194C250.366 174.141 260.761 173.257 261.521 172.88C261.881 172.703 267.134 168.499 272.564 164.125C278.619 159.255 284.892 154.167 284.892 154.167L282.386 146.556L281.584 144.115C283.848 143.443 290.628 141.261 291.642 139.062C291.901 139.941 292.279 141.226 292.697 142.735C294.32 148.595 296.613 157.869 295.505 159.991Z" fill="url(#paint17_linear_4_217)"/>
<path opacity="0.25" d="M292.699 142.734C289.332 145.888 284.74 146.478 282.387 146.554L281.585 144.113C283.849 143.441 290.629 141.259 291.643 139.06C291.903 139.94 292.28 141.225 292.699 142.734Z" fill="black"/>
<path opacity="0.25" d="M255.926 157.438C255.437 159.366 254.782 161.76 254.057 164.077C250.838 162.055 246.97 157.143 244.901 154.319L245.597 151.236C250.302 154.502 254.977 154.16 254.977 154.16C255.425 155.552 255.755 156.684 255.926 157.438Z" fill="black"/>
<path d="M302.578 281.673L288.464 282.87C287.166 282.98 286.024 282.017 285.914 280.719L285.886 280.385C285.776 279.087 286.739 277.945 288.038 277.835L302.152 276.638C303.45 276.528 304.592 277.491 304.702 278.79L304.73 279.124C304.839 280.421 303.876 281.563 302.578 281.673Z" fill="#A2A5AA"/>
<path d="M258.633 280.997C258.338 282.129 257.312 282.878 256.186 282.878C256.044 282.878 255.909 282.866 255.767 282.843C255.69 282.831 255.62 282.814 255.543 282.796L242.177 279.276L241.487 279.093C240.137 278.733 239.335 277.354 239.689 276.004C239.99 274.872 241.01 274.117 242.13 274.117C242.342 274.117 242.56 274.146 242.778 274.205L256.834 277.908C258.185 278.268 258.986 279.647 258.633 280.997Z" fill="#A2A5AA"/>
<path d="M256.976 297.954L232.213 296.563C232.213 296.563 222.355 296.439 230.945 291.386C232.46 290.496 233.804 289.499 235.001 288.468C238.892 285.09 241.156 281.281 242.176 279.277L247.04 280.556L255.542 282.796C255.619 282.814 255.689 282.831 255.766 282.843C256.38 287.89 256.976 297.954 256.976 297.954Z" fill="url(#paint18_linear_4_217)"/>
<path d="M223.999 300.354C223.999 300.354 224.501 292.145 230.946 291.386C237.391 290.626 238.13 296.895 238.13 296.895L256.976 295.838L257.479 300.354H223.999Z" fill="#010D19"/>
<path d="M247.041 280.555C246.286 283.013 244.17 288.591 240.172 290.248C238.232 288.697 236.245 288.432 235.001 288.467C238.892 285.089 241.156 281.28 242.176 279.276L247.041 280.555Z" fill="#010D19"/>
<path opacity="0.25" d="M291.767 138.643C291.749 138.784 291.708 138.92 291.643 139.062C291.277 139.858 290.151 140.648 288.76 141.373C288.731 138.496 288.406 134.392 287.145 130.301C285.518 125.036 282.346 121.092 280.618 119.223C281.001 119.105 281.42 119.005 281.862 118.934C281.862 118.934 287.593 122.118 291.584 137.895C291.643 138.142 291.708 138.389 291.767 138.643Z" fill="black"/>
<path opacity="0.25" d="M285.589 183.497C285.589 183.497 285.21 188.987 290.706 190.124" stroke="white" stroke-width="1.1792" stroke-miterlimit="10" stroke-linecap="round" stroke-linejoin="round"/>
<path opacity="0.25" d="M288.145 192.334L298.918 274.117" stroke="white" stroke-width="1.1792" stroke-miterlimit="10" stroke-linecap="round" stroke-linejoin="round"/>
<path opacity="0.25" d="M271.476 204.716L253.199 274.117" stroke="white" stroke-width="1.1792" stroke-miterlimit="10" stroke-linecap="round" stroke-linejoin="round"/>
<path opacity="0.25" d="M274.103 205.725C272.21 210.159 268.396 226.16 264.835 242.102C264.729 233.771 264.906 224.81 265.82 218.106C268.089 201.374 274.103 205.725 274.103 205.725Z" fill="black"/>
<path opacity="0.25" d="M293.253 183.486C268.968 195.608 257.913 180.815 257.43 180.143C258.804 181.647 262.925 183.297 268.679 183.48C274.876 183.674 282.971 182.165 291.59 176.918C291.791 176.517 291.814 175.562 291.702 174.188C291.991 174.471 292.545 177.956 293.253 183.486Z" fill="black"/>
<path opacity="0.25" d="M272.564 164.124C271.55 168.027 263.266 174.288 261.804 174.188C260.147 174.076 252.424 176.051 249.995 177.472C248.097 178.58 247.666 180.355 247.572 181.08C247.183 180.879 246.888 180.384 247.542 179.193C250.366 174.14 260.761 173.256 261.521 172.879C261.881 172.703 267.134 168.499 272.564 164.124Z" fill="white"/>
<path d="M117.151 193.689L115.221 192.335L113.291 190.979C112.998 191.396 106.028 201.416 98.992 219.972C92.525 237.029 84.815 264.821 84.815 300.354H89.532C89.532 233.881 116.875 194.083 117.151 193.689Z" fill="url(#paint19_linear_4_217)"/>
<path d="M159.348 193.689L157.418 192.335L155.488 190.979C155.195 191.396 148.225 201.416 141.189 219.972C134.722 237.029 127.012 264.821 127.012 300.354H131.729C131.729 233.881 159.072 194.083 159.348 193.689Z" fill="url(#paint20_linear_4_217)"/>
<path d="M294.628 193.689L296.559 192.335L298.489 190.979C298.782 191.396 305.752 201.416 312.788 219.972C319.255 237.029 326.965 264.821 326.965 300.354H322.248C322.248 233.881 294.904 194.083 294.628 193.689Z" fill="url(#paint21_linear_4_217)"/>
<path d="M252.431 193.689L254.361 192.335L256.291 190.979C256.584 191.396 263.554 201.416 270.59 219.972C277.057 237.029 284.767 264.821 284.767 300.354H280.05C280.05 233.881 252.707 194.083 252.431 193.689Z" fill="url(#paint22_linear_4_217)"/>
<path d="M298.919 191.363C298.919 192.224 298.571 193.002 298.005 193.568C297.439 194.134 296.661 194.482 295.8 194.482H84.228C82.507 194.482 81.109 193.085 81.109 191.363C81.109 190.502 81.457 189.724 82.023 189.158C82.589 188.592 83.367 188.244 84.228 188.244H295.8C297.521 188.244 298.919 189.642 298.919 191.363Z" fill="#9CACF2"/>
<path d="M336.334 191.363C336.334 192.224 335.986 193.002 335.42 193.568C334.854 194.134 334.076 194.482 333.215 194.482H295.8C296.661 194.482 297.439 194.134 298.005 193.568C298.571 193.002 298.919 192.224 298.919 191.363C298.919 189.641 297.522 188.244 295.8 188.244H333.215C334.936 188.244 336.334 189.642 336.334 191.363Z" fill="#C7CFFF"/>
<path d="M157.419 96.8228V165.297H108.059C104.15 165.297 100.984 162.131 100.984 158.222V103.898C100.984 99.9888 104.15 96.8228 108.059 96.8228H157.419Z" fill="#EEF8FF"/>
<path d="M157.418 165.298V96.8218C153.511 96.8218 150.343 99.9898 150.343 103.897V158.223C150.343 162.13 153.511 165.298 157.418 165.298Z" fill="#C7CFFF"/>
<path opacity="0.25" d="M132.851 165.298H115.535L119.821 138.737C119.821 138.737 121.855 134.804 126.306 137.351C129.927 139.427 128.229 157.338 132.851 165.298Z" fill="black"/>
<path d="M108.398 180.12L119.819 138.735C120.236 137.223 122.232 136.85 123.138 138.131C124.852 140.555 126.757 144.686 126.211 150.695C125.264 161.13 119.199 181.082 119.199 181.082L108.398 180.12Z" fill="#9CACF2"/>
<path d="M128.703 179.037H105.599C103.057 179.037 100.995 181.098 100.995 183.641C100.995 186.184 103.056 188.245 105.599 188.245H128.703C131.246 188.245 133.307 186.184 133.307 183.641C133.307 181.098 131.246 179.037 128.703 179.037Z" fill="#7189E2"/>
<path d="M126.307 125.122C126.307 128.401 124.581 131.06 122.452 131.06C120.323 131.06 118.597 128.402 118.597 125.122C118.597 121.842 120.323 119.184 122.452 119.184C124.581 119.184 126.307 121.842 126.307 125.122Z" fill="url(#paint23_linear_4_217)"/>
<path d="M270.476 185.007L240.676 183.483V188.243H270.476V185.007Z" fill="#9CACF2"/>
<path d="M246.996 188.243H189.541C188.867 188.243 188.281 187.782 188.123 187.128L179.065 149.792C178.842 148.873 179.538 147.988 180.483 147.988H237.938C238.611 147.988 239.198 148.449 239.356 149.103L248.414 186.439C248.637 187.358 247.941 188.243 246.996 188.243Z" fill="#C7CFFF"/>
<path d="M245.137 186.487H187.682C187.01 186.487 186.42 186.027 186.261 185.373L177.205 148.035C177.087 147.558 177.223 147.092 177.512 146.75C177.771 146.437 178.172 146.231 178.626 146.231H236.081C236.753 146.231 237.337 146.691 237.496 147.345L246.552 184.683C246.776 185.603 246.08 186.487 245.137 186.487Z" fill="#EEF8FF"/>
<path d="M214.017 166.983C214.771 168.952 214.058 171.054 212.426 171.679C210.793 172.304 208.859 171.215 208.105 169.247C207.351 167.279 208.064 165.176 209.696 164.551C211.329 163.925 213.263 165.014 214.017 166.983Z" fill="url(#paint24_linear_4_217)"/>
<path d="M373.304 67.5428C383.974 92.2948 370.124 122.06 342.37 134.024C314.615 145.988 283.466 135.622 272.796 110.87C262.126 86.1178 275.976 56.3538 303.73 44.3888C331.484 32.4238 362.634 42.7908 373.304 67.5428Z" fill="url(#paint25_radial_4_217)"/>
<path d="M355.641 60.6288V104.011C355.641 106.328 353.76 108.209 351.443 108.209H281.701C279.384 108.209 277.503 106.328 277.503 104.011V60.6288C277.503 58.3118 279.384 56.4308 281.701 56.4308H351.443C353.76 56.4318 355.641 58.3118 355.641 60.6288Z" fill="url(#paint26_linear_4_217)"/>
<path d="M301.283 98.8688C298.965 98.8688 297.078 96.9828 297.078 94.6648V87.1418C297.078 86.5798 296.859 86.0528 296.462 85.6558L294.953 84.1468C293.947 83.1408 293.947 81.5038 294.953 80.4978L296.462 78.9888C296.859 78.5918 297.078 78.0638 297.078 77.5028V69.9798C297.078 67.6618 298.964 65.7758 301.283 65.7758V67.8778C300.124 67.8778 299.181 68.8208 299.181 69.9798V77.5028C299.181 78.6258 298.744 79.6818 297.949 80.4758L296.44 81.9848C296.254 82.1708 296.254 82.4748 296.441 82.6608L297.949 84.1698C298.743 84.9638 299.181 86.0198 299.181 87.1428V94.6658C299.181 95.8248 300.124 96.7678 301.283 96.7678V98.8688Z" fill="#EEF8FF"/>
<path d="M331.865 65.7728C334.183 65.7728 336.07 67.6588 336.07 69.9768V77.4998C336.07 78.0608 336.289 78.5888 336.686 78.9858L338.195 80.4948C339.201 81.5008 339.201 83.1378 338.195 84.1438L336.686 85.6528C336.289 86.0498 336.07 86.5778 336.07 87.1388V94.6618C336.07 96.9798 334.184 98.8658 331.865 98.8658V96.7638C333.024 96.7638 333.967 95.8208 333.967 94.6618V87.1388C333.967 86.0158 334.404 84.9598 335.199 84.1658L336.708 82.6568C336.894 82.4708 336.894 82.1668 336.708 81.9808L335.199 80.4718C334.405 79.6778 333.967 78.6218 333.967 77.4988V69.9758C333.967 68.8168 333.024 67.8738 331.865 67.8738V65.7728Z" fill="#EEF8FF"/>
<path d="M326.191 76.0808C324.42 74.3098 321.55 74.3098 319.779 76.0808L316.573 79.2868L313.367 76.0808C311.596 74.3098 308.726 74.3098 306.955 76.0808C305.184 77.8518 305.184 80.7218 306.955 82.4928L310.161 85.6988L316.573 92.1108L322.985 85.6988L326.191 82.4928C327.962 80.7218 327.962 77.8518 326.191 76.0808Z" fill="#EEF8FF"/>
<path d="M266.431 60.1788V58.1558C266.431 57.3888 265.809 56.7668 265.042 56.7668H261.736C261.475 55.6618 261.038 54.6268 260.456 53.6878L262.797 51.3468C263.339 50.8048 263.339 49.9248 262.797 49.3828L261.366 47.9518C260.824 47.4098 259.944 47.4098 259.402 47.9518L257.061 50.2928C256.122 49.7108 255.087 49.2738 253.982 49.0128V45.7068C253.982 44.9398 253.36 44.3178 252.593 44.3178H250.57C249.803 44.3178 249.181 44.9398 249.181 45.7068V49.0128C248.076 49.2738 247.041 49.7108 246.102 50.2928L243.761 47.9518C243.219 47.4098 242.339 47.4098 241.797 47.9518L240.366 49.3828C239.824 49.9248 239.824 50.8048 240.366 51.3468L242.707 53.6878C242.125 54.6268 241.688 55.6618 241.427 56.7668H238.121C237.354 56.7668 236.732 57.3888 236.732 58.1558V60.1788C236.732 60.9458 237.354 61.5678 238.121 61.5678H241.427C241.688 62.6728 242.125 63.7078 242.707 64.6468L240.366 66.9878C239.824 67.5298 239.824 68.4098 240.366 68.9518L241.797 70.3828C242.339 70.9248 243.219 70.9248 243.761 70.3828L246.102 68.0418C247.041 68.6238 248.076 69.0608 249.181 69.3218V72.6278C249.181 73.3948 249.803 74.0168 250.57 74.0168H252.593C253.36 74.0168 253.982 73.3948 253.982 72.6278V69.3218C255.087 69.0608 256.122 68.6238 257.061 68.0418L259.402 70.3828C259.944 70.9248 260.824 70.9248 261.366 70.3828L262.797 68.9518C263.339 68.4098 263.339 67.5298 262.797 66.9878L260.456 64.6468C261.038 63.7078 261.475 62.6728 261.736 61.5678H265.042C265.809 61.5678 266.431 60.9458 266.431 60.1788ZM252.554 64.8138C248.64 65.4608 245.288 62.1098 245.935 58.1958C246.327 55.8248 248.239 53.9128 250.61 53.5198C254.524 52.8728 257.875 56.2238 257.229 60.1378C256.837 62.5088 254.925 64.4218 252.554 64.8138Z" fill="#00264A"/>
<path d="M222.779 107.366C222.014 107.366 221.396 106.779 221.312 106.019C220.639 99.8698 215.412 95.0668 209.087 95.0668C203.851 95.0668 199.365 98.3628 197.596 102.985L200.467 103.586L196.841 106.251L195.326 107.365H195.049L193.958 105.484L191.806 101.776L194.683 102.377C196.753 96.4098 202.424 92.1178 209.087 92.1178C216.933 92.1178 223.413 98.0738 224.244 105.703C224.34 106.588 223.668 107.366 222.779 107.366Z" fill="#0074C6"/>
<path d="M195.149 111.438C195.914 111.438 196.532 112.025 196.616 112.785C197.289 118.934 202.516 123.737 208.841 123.737C214.077 123.737 218.563 120.441 220.332 115.819L217.461 115.218L221.087 112.553L222.602 111.439H222.879L223.97 113.32L226.122 117.028L223.245 116.427C221.176 122.394 215.504 126.686 208.841 126.686C200.995 126.686 194.515 120.73 193.684 113.101C193.589 112.216 194.261 111.438 195.149 111.438Z" fill="#0074C6"/>
<path d="M195.326 107.366L195.132 107.508L195.049 107.366H195.326Z" fill="#0074C6"/>
<path opacity="0.28" d="M338.94 309.427C338.722 314.079 334.713 317.664 330.049 317.664H84.081C79.158 317.664 75.202 313.56 75.432 308.59C75.544 306.267 76.605 304.203 78.215 302.729C79.825 301.249 81.994 300.353 84.323 300.353H330.297C335.213 300.353 339.175 304.457 338.94 309.427Z" fill="black"/>
<path d="M331.865 126.685H381.291" stroke="url(#paint27_linear_4_217)" stroke-width="2.9479" stroke-miterlimit="10" stroke-linecap="round" stroke-linejoin="round"/>
<path d="M331.865 135.485H363.856" stroke="white" stroke-width="2.9479" stroke-miterlimit="10" stroke-linecap="round" stroke-linejoin="round"/>
<path d="M331.865 144.097H363.856" stroke="white" stroke-width="2.9479" stroke-miterlimit="10" stroke-linecap="round" stroke-linejoin="round"/>
<path d="M331.865 144.299C336.733 144.299 340.679 140.353 340.679 135.485C340.679 130.617 336.733 126.671 331.865 126.671C326.997 126.671 323.051 130.617 323.051 135.485C323.051 140.353 326.997 144.299 331.865 144.299Z" fill="url(#paint28_radial_4_217)"/>
<path d="M75.301 174.935H25.874" stroke="white" stroke-width="2.9479" stroke-miterlimit="10" stroke-linecap="round" stroke-linejoin="round"/>
<path d="M75.301 183.735H43.309" stroke="url(#paint29_linear_4_217)" stroke-width="2.9479" stroke-miterlimit="10" stroke-linecap="round" stroke-linejoin="round"/>
<path d="M75.301 192.346H43.309" stroke="url(#paint30_linear_4_217)" stroke-width="2.9479" stroke-miterlimit="10" stroke-linecap="round" stroke-linejoin="round"/>
<path d="M75.614 183.592C80.4818 183.592 84.428 179.646 84.428 174.778C84.428 169.91 80.4818 165.964 75.614 165.964C70.7462 165.964 66.8 169.91 66.8 174.778C66.8 179.646 70.7462 183.592 75.614 183.592Z" fill="url(#paint31_radial_4_217)"/>
<path d="M246.552 184.683L237.496 147.345C237.337 146.691 236.753 146.231 236.081 146.231H178.626C178.172 146.231 177.771 146.437 177.512 146.75L177.164 146.555L187.741 89.2418C187.741 89.2418 270.716 48.0558 287.142 97.3278C288.169 100.407 315.565 140.088 316.067 142.809C323.598 183.621 246.552 184.683 246.552 184.683Z" fill="url(#paint32_radial_4_217)"/>
<path d="M111.178 155.127C111.178 155.127 95.538 238.18 162.724 247.165C213.74 253.987 269.481 213.085 255.576 185.862" stroke="#626BCB" stroke-width="1.1792" stroke-miterlimit="10" stroke-linecap="round" stroke-linejoin="round"/>
<path d="M135.309 153.453C135.309 153.453 114.084 191.07 135.309 244.133C156.534 297.195 285.211 312.052 261.666 186.81" stroke="#313BAC" stroke-width="1.1792" stroke-miterlimit="10" stroke-linecap="round" stroke-linejoin="round"/>
<path d="M235.411 236.544C240.279 236.544 244.225 232.598 244.225 227.73C244.225 222.862 240.279 218.916 235.411 218.916C230.543 218.916 226.597 222.862 226.597 227.73C226.597 232.598 230.543 236.544 235.411 236.544Z" fill="url(#paint33_radial_4_217)"/>
<path d="M165.823 282.931C170.691 282.931 174.637 278.985 174.637 274.117C174.637 269.249 170.691 265.303 165.823 265.303C160.955 265.303 157.009 269.249 157.009 274.117C157.009 278.985 160.955 282.931 165.823 282.931Z" fill="url(#paint34_radial_4_217)"/>
<path d="M396.284 198.413C390.789 212.687 383.685 226.294 375.366 238.823C376.71 229.065 386.061 164.895 402.876 144.03C404.998 157.584 400.953 179.57 396.284 198.413Z" fill="url(#paint35_linear_4_217)"/>
<path d="M379.905 231.683C378.437 234.094 376.922 236.476 375.365 238.823C372.942 242.473 370.413 246.034 367.789 249.488C367.736 248.621 364.853 201.231 379.876 176.692C385.176 194.811 382.311 218.353 379.905 231.683Z" fill="#B3CEE8"/>
<g opacity="0.25">
<path d="M402.876 144.03C399.374 157.036 396.073 170.096 393.061 183.219C391.553 189.78 390.114 196.357 388.833 202.962C387.558 209.565 386.358 216.192 385.602 222.856L384.431 222.718C385.292 216.007 386.592 209.386 387.967 202.786C389.347 196.187 390.883 189.626 392.488 183.083C395.693 169.996 399.184 156.983 402.876 144.03Z" fill="black"/>
</g>
<g opacity="0.25">
<path d="M379.876 176.693C378.968 181.821 378.214 186.975 377.542 192.137C376.884 197.301 376.298 202.474 375.894 207.661C375.5 212.847 375.163 218.041 375.144 223.236C375.12 228.427 375.279 233.624 375.95 238.748L374.78 238.898C374.196 233.675 374.137 228.438 374.259 223.219C374.376 217.997 374.813 212.796 375.306 207.607C375.809 202.418 376.494 197.25 377.25 192.096C378.02 186.943 378.871 181.803 379.876 176.693Z" fill="black"/>
</g>
<path d="M54.282 261.396C54.282 261.396 30.896 247.139 22.115 219.425C46.567 222.54 68.373 262.728 68.373 262.728L54.282 261.396Z" fill="#B3CEE8"/>
<g opacity="0.25">
<path d="M22.115 219.424C28.742 225.432 35.211 231.615 41.541 237.942C47.85 244.289 54.021 250.786 59.764 257.687L58.846 258.428C53.295 251.451 47.279 244.829 41.119 238.354C34.937 231.898 28.607 225.576 22.115 219.424Z" fill="black"/>
</g>
<path d="M81.234 284.763C80.821 284.916 80.367 284.957 79.89 284.904C74.713 280.441 68.965 274.975 63.099 268.472C34.245 251.975 6.251 286.737 6.251 286.737C6.251 286.737 17.913 246.185 50.582 253.025H50.588C83.263 259.865 81.234 284.763 81.234 284.763Z" fill="url(#paint36_linear_4_217)"/>
<g opacity="0.25">
<path d="M6.251 286.738C10.241 280.414 15.085 274.613 20.656 269.6C26.24 264.659 32.802 260.486 40.231 258.912C43.922 258.13 47.779 258.067 51.497 258.787C55.211 259.512 58.795 260.92 62.022 262.893C62.851 263.349 63.598 263.934 64.391 264.449L65.563 265.247L66.662 266.139C67.391 266.739 68.136 267.316 68.853 267.937L69.895 268.921L70.87 269.975C72.128 271.419 73.194 273.041 73.99 274.796C74.786 276.561 75.352 278.392 75.469 280.423L74.29 280.42C74.215 278.712 73.71 276.887 72.982 275.248C72.255 273.587 71.268 272.036 70.087 270.645L69.17 269.627L68.185 268.673C67.498 268.061 66.77 267.483 66.064 266.885L64.997 265.995L63.86 265.201C63.092 264.688 62.367 264.103 61.563 263.648C58.433 261.678 54.962 260.263 51.354 259.509C47.741 258.76 43.979 258.77 40.348 259.489C33.042 260.933 26.472 264.972 20.849 269.821C15.238 274.74 10.323 280.468 6.251 286.738Z" fill="black"/>
</g>
<path d="M21.24 136.96L14.36 133.52V131.92L21.24 128.48V129.872L16.28 132.304C16.0773 132.4 15.8853 132.485 15.704 132.56C15.5333 132.624 15.4053 132.667 15.32 132.688C15.416 132.709 15.5547 132.757 15.736 132.832C15.9173 132.896 16.0987 132.976 16.28 133.072L21.24 135.52V136.96ZM27.4578 138.16C26.7538 138.16 26.1404 138.027 25.6178 137.76C25.1058 137.493 24.7058 137.109 24.4178 136.608C24.1404 136.096 24.0018 135.493 24.0018 134.8V129.52C24.0018 128.816 24.1404 128.213 24.4178 127.712C24.7058 127.211 25.1058 126.827 25.6178 126.56C26.1404 126.293 26.7538 126.16 27.4578 126.16C28.1618 126.16 28.7698 126.299 29.2818 126.576C29.7938 126.843 30.1884 127.227 30.4658 127.728C30.7431 128.229 30.8818 128.827 30.8818 129.52H29.4418C29.4418 128.859 29.2658 128.352 28.9138 128C28.5724 127.637 28.0871 127.456 27.4578 127.456C26.8284 127.456 26.3324 127.632 25.9698 127.984C25.6178 128.336 25.4418 128.843 25.4418 129.504V134.8C25.4418 135.461 25.6178 135.973 25.9698 136.336C26.3324 136.688 26.8284 136.864 27.4578 136.864C28.0871 136.864 28.5724 136.688 28.9138 136.336C29.2658 135.973 29.4418 135.461 29.4418 134.8H30.8818C30.8818 135.483 30.7431 136.08 30.4658 136.592C30.1884 137.093 29.7938 137.483 29.2818 137.76C28.7698 138.027 28.1618 138.16 27.4578 138.16ZM36.9875 138.16C36.2835 138.16 35.6755 138.027 35.1635 137.76C34.6622 137.493 34.2728 137.109 33.9955 136.608C33.7288 136.096 33.5955 135.493 33.5955 134.8V129.52C33.5955 128.816 33.7288 128.213 33.9955 127.712C34.2728 127.211 34.6622 126.827 35.1635 126.56C35.6755 126.293 36.2835 126.16 36.9875 126.16C37.6915 126.16 38.2942 126.293 38.7955 126.56C39.3075 126.827 39.6968 127.211 39.9635 127.712C40.2408 128.213 40.3795 128.811 40.3795 129.504V134.8C40.3795 135.493 40.2408 136.096 39.9635 136.608C39.6968 137.109 39.3075 137.493 38.7955 137.76C38.2942 138.027 37.6915 138.16 36.9875 138.16ZM36.9875 136.864C37.6168 136.864 38.0968 136.688 38.4275 136.336C38.7688 135.973 38.9395 135.461 38.9395 134.8V129.52C38.9395 128.859 38.7688 128.352 38.4275 128C38.0968 127.637 37.6168 127.456 36.9875 127.456C36.3688 127.456 35.8888 127.637 35.5475 128C35.2062 128.352 35.0355 128.859 35.0355 129.52V134.8C35.0355 135.461 35.2062 135.973 35.5475 136.336C35.8888 136.688 36.3688 136.864 36.9875 136.864ZM43.2533 138V126.32H46.2773C47.0346 126.32 47.6853 126.464 48.2293 126.752C48.7839 127.04 49.2106 127.445 49.5093 127.968C49.8186 128.491 49.9733 129.109 49.9733 129.824V134.48C49.9733 135.195 49.8186 135.819 49.5093 136.352C49.2106 136.875 48.7839 137.28 48.2293 137.568C47.6853 137.856 47.0346 138 46.2773 138H43.2533ZM44.6933 136.72H46.2773C46.9813 136.72 47.5306 136.523 47.9253 136.128C48.3306 135.733 48.5333 135.184 48.5333 134.48V129.824C48.5333 129.131 48.3306 128.587 47.9253 128.192C47.5306 127.797 46.9813 127.6 46.2773 127.6H44.6933V136.72ZM52.975 138V126.32H59.695V127.632H54.399V131.248H59.135V132.544H54.399V136.688H59.695V138H52.975ZM62.3288 136.96V135.568L67.2888 133.136C67.4914 133.04 67.6781 132.96 67.8488 132.896C68.0301 132.821 68.1634 132.773 68.2488 132.752C68.1528 132.731 68.0141 132.688 67.8328 132.624C67.6514 132.549 67.4701 132.464 67.2888 132.368L62.3288 129.92V128.48L69.2088 131.92V133.52L62.3288 136.96Z" fill="white"/>
<defs>
<linearGradient id="paint0_linear_4_217" x1="216.637" y1="8.72269" x2="207.541" y2="311.179" gradientUnits="userSpaceOnUse">
<stop stop-color="white" stop-opacity="0.21"/>
<stop offset="1" stop-color="#060E62"/>
</linearGradient>
<radialGradient id="paint1_radial_4_217" cx="0" cy="0" r="1" gradientUnits="userSpaceOnUse" gradientTransform="translate(66.8036 145.288) rotate(-23.322) scale(45.3289 39.7513)">
<stop stop-color="#3E84FF"/>
<stop offset="0.3286" stop-color="#5469FF" stop-opacity="0.6714"/>
<stop offset="0.7569" stop-color="#6B4BFF" stop-opacity="0.2431"/>
<stop offset="1" stop-color="#7440FF" stop-opacity="0"/>
</radialGradient>
<linearGradient id="paint2_linear_4_217" x1="33.8015" y1="20.6724" x2="69.4304" y2="314.042" gradientUnits="userSpaceOnUse">
<stop stop-color="#313BAC"/>
<stop offset="1" stop-color="#5426CE"/>
</linearGradient>
<radialGradient id="paint3_radial_4_217" cx="0" cy="0" r="1" gradientUnits="userSpaceOnUse" gradientTransform="translate(79.408 147.811) scale(8.8144 8.8144)">
<stop stop-color="white"/>
<stop offset="1"/>
</radialGradient>
<linearGradient id="paint4_linear_4_217" x1="128.234" y1="-24.5901" x2="128.234" y2="87.4091" gradientUnits="userSpaceOnUse">
<stop stop-color="#313BAC"/>
<stop offset="1" stop-color="#7440FF"/>
</linearGradient>
<linearGradient id="paint5_linear_4_217" x1="91.9379" y1="34.5876" x2="50.2459" y2="92.7037" gradientUnits="userSpaceOnUse">
<stop stop-color="#3E84FF"/>
<stop offset="1" stop-color="#7440FF"/>
</linearGradient>
<linearGradient id="paint6_linear_4_217" x1="105.737" y1="44.487" x2="64.0453" y2="102.603" gradientUnits="userSpaceOnUse">
<stop stop-color="#3E84FF"/>
<stop offset="1" stop-color="#7440FF"/>
</linearGradient>
<linearGradient id="paint7_linear_4_217" x1="99.0396" y1="39.6825" x2="57.3477" y2="97.7986" gradientUnits="userSpaceOnUse">
<stop stop-color="#3E84FF"/>
<stop offset="1" stop-color="#7440FF"/>
</linearGradient>
<linearGradient id="paint8_linear_4_217" x1="119.417" y1="59.167" x2="138.986" y2="59.167" gradientUnits="userSpaceOnUse">
<stop stop-color="#3E84FF"/>
<stop offset="1" stop-color="#7440FF"/>
</linearGradient>
<linearGradient id="paint9_linear_4_217" x1="302.354" y1="298.769" x2="301.514" y2="278.595" gradientUnits="userSpaceOnUse">
<stop stop-color="#3E84FF"/>
<stop offset="1" stop-color="#7440FF"/>
</linearGradient>
<linearGradient id="paint10_linear_4_217" x1="279.337" y1="164.685" x2="273.652" y2="258.68" gradientUnits="userSpaceOnUse">
<stop stop-color="#2B2B2B"/>
<stop offset="1" stop-color="#111111"/>
</linearGradient>
<linearGradient id="paint11_linear_4_217" x1="245.758" y1="164.658" x2="253.591" y2="132.82" gradientUnits="userSpaceOnUse">
<stop stop-color="#3E84FF"/>
<stop offset="1" stop-color="#7440FF"/>
</linearGradient>
<linearGradient id="paint12_linear_4_217" x1="252.374" y1="146.821" x2="240.435" y2="180.933" gradientUnits="userSpaceOnUse">
<stop stop-color="#F78B7C"/>
<stop offset="1" stop-color="#FFB7A9"/>
</linearGradient>
<linearGradient id="paint13_linear_4_217" x1="259.166" y1="107.983" x2="275.337" y2="173.174" gradientUnits="userSpaceOnUse">
<stop stop-color="#3E84FF"/>
<stop offset="1" stop-color="#7440FF"/>
</linearGradient>
<linearGradient id="paint14_linear_4_217" x1="258.344" y1="106.428" x2="255.123" y2="123.295" gradientUnits="userSpaceOnUse">
<stop stop-color="#F78B7C"/>
<stop offset="1" stop-color="#FFB7A9"/>
</linearGradient>
<linearGradient id="paint15_linear_4_217" x1="252.344" y1="92.257" x2="255.755" y2="110.639" gradientUnits="userSpaceOnUse">
<stop stop-color="#2B2B2B"/>
<stop offset="1" stop-color="#111111"/>
</linearGradient>
<linearGradient id="paint16_linear_4_217" x1="294.477" y1="153.466" x2="280.58" y2="128.955" gradientUnits="userSpaceOnUse">
<stop stop-color="#313BAC"/>
<stop offset="1" stop-color="#350CA3"/>
</linearGradient>
<linearGradient id="paint17_linear_4_217" x1="290.028" y1="124.109" x2="268.425" y2="177.172" gradientUnits="userSpaceOnUse">
<stop stop-color="#F78B7C"/>
<stop offset="1" stop-color="#FFB7A9"/>
</linearGradient>
<linearGradient id="paint18_linear_4_217" x1="242.408" y1="301.267" x2="241.567" y2="281.093" gradientUnits="userSpaceOnUse">
<stop stop-color="#313BAC"/>
<stop offset="1" stop-color="#7440FF"/>
</linearGradient>
<linearGradient id="paint19_linear_4_217" x1="100.435" y1="153.38" x2="100.856" y2="225.25" gradientUnits="userSpaceOnUse">
<stop stop-color="#6D5BD8"/>
<stop offset="1" stop-color="#C7CFFF"/>
</linearGradient>
<linearGradient id="paint20_linear_4_217" x1="173.332" y1="159.188" x2="130.042" y2="277.711" gradientUnits="userSpaceOnUse">
<stop stop-color="#6D5BD8"/>
<stop offset="1" stop-color="#C7CFFF"/>
</linearGradient>
<linearGradient id="paint21_linear_4_217" x1="281.908" y1="176.037" x2="323.097" y2="273.126" gradientUnits="userSpaceOnUse">
<stop stop-color="#6D5BD8"/>
<stop offset="1" stop-color="#C7CFFF"/>
</linearGradient>
<linearGradient id="paint22_linear_4_217" x1="268.048" y1="152.4" x2="268.468" y2="224.27" gradientUnits="userSpaceOnUse">
<stop stop-color="#6D5BD8"/>
<stop offset="1" stop-color="#C7CFFF"/>
</linearGradient>
<linearGradient id="paint23_linear_4_217" x1="124.672" y1="157.307" x2="120.888" y2="102.436" gradientUnits="userSpaceOnUse">
<stop stop-color="#3E84FF"/>
<stop offset="1" stop-color="#7440FF"/>
</linearGradient>
<linearGradient id="paint24_linear_4_217" x1="221.277" y1="202.913" x2="203.344" y2="141.83" gradientUnits="userSpaceOnUse">
<stop stop-color="#3E84FF"/>
<stop offset="1" stop-color="#7440FF"/>
</linearGradient>
<radialGradient id="paint25_radial_4_217" cx="0" cy="0" r="1" gradientUnits="userSpaceOnUse" gradientTransform="translate(323.055 89.2038) rotate(-23.322) scale(45.3289 39.7513)">
<stop stop-color="#3E84FF"/>
<stop offset="0.3286" stop-color="#5469FF" stop-opacity="0.6714"/>
<stop offset="0.7569" stop-color="#6B4BFF" stop-opacity="0.2431"/>
<stop offset="1" stop-color="#7440FF" stop-opacity="0"/>
</radialGradient>
<linearGradient id="paint26_linear_4_217" x1="295.69" y1="29.3112" x2="335.108" y2="129.372" gradientUnits="userSpaceOnUse">
<stop stop-color="#313BAC"/>
<stop offset="1" stop-color="#6931FF"/>
</linearGradient>
<linearGradient id="paint27_linear_4_217" x1="-nan" y1="-nan" x2="-nan" y2="-nan" gradientUnits="userSpaceOnUse">
<stop stop-color="#3E84FF"/>
<stop offset="1" stop-color="#7440FF"/>
</linearGradient>
<radialGradient id="paint28_radial_4_217" cx="0" cy="0" r="1" gradientUnits="userSpaceOnUse" gradientTransform="translate(331.864 135.485) scale(8.8144 8.8144)">
<stop stop-color="white"/>
<stop offset="1"/>
</radialGradient>
<linearGradient id="paint29_linear_4_217" x1="-nan" y1="-nan" x2="-nan" y2="-nan" gradientUnits="userSpaceOnUse">
<stop stop-color="#3E84FF"/>
<stop offset="1" stop-color="#7440FF"/>
</linearGradient>
<linearGradient id="paint30_linear_4_217" x1="-nan" y1="-nan" x2="-nan" y2="-nan" gradientUnits="userSpaceOnUse">
<stop stop-color="#3E84FF"/>
<stop offset="1" stop-color="#7440FF"/>
</linearGradient>
<radialGradient id="paint31_radial_4_217" cx="0" cy="0" r="1" gradientUnits="userSpaceOnUse" gradientTransform="translate(75.6145 174.778) scale(8.8144 8.8144)">
<stop stop-color="white"/>
<stop offset="1"/>
</radialGradient>
<radialGradient id="paint32_radial_4_217" cx="0" cy="0" r="1" gradientUnits="userSpaceOnUse" gradientTransform="translate(139.667 296.627) scale(232.678 232.678)">
<stop stop-color="#FF00FF"/>
<stop offset="1" stop-color="#00FFFF" stop-opacity="0"/>
</radialGradient>
<radialGradient id="paint33_radial_4_217" cx="0" cy="0" r="1" gradientUnits="userSpaceOnUse" gradientTransform="translate(235.411 227.729) scale(8.8144)">
<stop stop-color="white"/>
<stop offset="1"/>
</radialGradient>
<radialGradient id="paint34_radial_4_217" cx="0" cy="0" r="1" gradientUnits="userSpaceOnUse" gradientTransform="translate(165.823 274.117) scale(8.8144 8.8144)">
<stop stop-color="white"/>
<stop offset="1"/>
</radialGradient>
<linearGradient id="paint35_linear_4_217" x1="403.691" y1="140.293" x2="384.361" y2="219.128" gradientUnits="userSpaceOnUse">
<stop stop-color="#313BAC"/>
<stop offset="1" stop-color="#481BBE"/>
</linearGradient>
<linearGradient id="paint36_linear_4_217" x1="13.8054" y1="251.164" x2="58.9085" y2="293.614" gradientUnits="userSpaceOnUse">
<stop stop-color="#313BAC"/>
<stop offset="1" stop-color="#5524D8"/>
</linearGradient>
</defs>
</svg>
